<?xml version="1.0" standalone="no"?>
<!DOCTYPE svg PUBLIC "-//W3C//DTD SVG 20010904//EN"
 "http://www.w3.org/TR/2001/REC-SVG-20010904/DTD/svg10.dtd">
<svg version="1.0" xmlns="http://www.w3.org/2000/svg"
 width="1042.000000pt" height="1042.000000pt" viewBox="0 0 1042.000000 1042.000000"
 preserveAspectRatio="xMidYMid meet">
<metadata>
Created by potrace 1.11, written by Peter Selinger 2001-2013
</metadata>
<g transform="translate(0.000000,1042.000000) scale(0.100000,-0.100000)"
fill="#000000" stroke="none">
<path d="M0 5210 l0 -5210 5210 0 5210 0 0 5210 0 5210 -5210 0 -5210 0 0
-5210z m5407 4962 c9 -6 -190 -565 -722 -2030 l-735 -2023 0 -471 c0 -260 4
-468 8 -463 5 6 393 1069 862 2363 797 2194 855 2352 874 2346 12 -3 24 -9 27
-13 4 -3 -391 -1101 -878 -2440 l-884 -2434 1 -471 c0 -258 2 -471 3 -473 2
-1 455 1242 1007 2763 553 1521 1007 2770 1010 2774 8 13 50 0 50 -15 0 -7
-465 -1290 -1032 -2851 l-1033 -2839 -3 -330 c-1 -181 1 -395 5 -473 l8 -144
1154 3179 c634 1748 1157 3182 1161 3186 10 11 50 -1 50 -14 0 -5 -533 -1478
-1185 -3273 l-1185 -3263 2 -422 3 -423 1296 3569 c829 2283 1301 3569 1310
3570 8 2 21 -1 28 -6 12 -8 -7 -69 -112 -358 -80 -220 -123 -351 -117 -357 6
-6 10 -824 10 -2192 0 -2420 -4 -2287 65 -2432 46 -97 116 -166 191 -188 49
-14 59 -14 107 0 92 27 164 97 218 211 15 33 395 1086 843 2340 448 1254 819
2292 825 2308 6 15 17 27 26 27 13 0 15 -350 15 -3305 l0 -3305 -30 0 -30 0 0
2178 c0 1385 -4 2209 -10 2264 -23 196 -97 341 -202 391 -76 37 -116 42 -183
22 -67 -19 -130 -76 -169 -152 -13 -27 -222 -603 -464 -1279 -242 -676 -610
-1704 -817 -2284 -225 -628 -387 -1068 -402 -1088 -56 -75 -52 -225 -55 2191
-3 2104 -4 2225 -21 2282 -54 179 -149 301 -263 335 -91 27 -231 -56 -296
-177 -15 -27 -225 -591 -466 -1253 -1330 -3643 -1257 -3446 -1277 -3454 -8 -3
-15 -13 -15 -22 0 -9 -8 -32 -17 -52 -9 -19 -139 -371 -288 -781 -175 -480
-277 -747 -286 -748 -51 -9 -50 -6 229 764 150 411 272 751 272 756 0 4 -69 7
-153 7 l-154 0 -230 -632 c-219 -605 -230 -633 -253 -630 -13 1 -26 4 -28 7
-3 3 106 310 242 682 224 617 245 681 237 713 -6 19 -15 55 -21 79 l-11 43
-36 -53 c-65 -100 -141 -160 -255 -203 l-63 -24 -175 -481 c-125 -344 -179
-481 -190 -481 -46 1 -44 7 128 481 93 255 169 465 168 466 -1 1 -41 -3 -91
-9 -49 -6 -129 -8 -176 -5 l-86 6 -113 -312 c-62 -172 -117 -320 -122 -329 -7
-15 -12 -16 -34 -6 -17 8 -23 17 -18 27 3 9 52 144 109 301 57 157 106 293
110 302 5 13 1 18 -17 22 -106 21 -172 41 -226 68 -34 17 -64 29 -65 27 -2 -2
-41 -109 -87 -237 -77 -215 -85 -232 -104 -226 -12 3 -24 9 -27 13 -4 3 33
116 83 252 l89 245 -35 52 c-44 66 -71 138 -85 232 -15 94 -43 4600 -30 4700
23 168 105 287 242 354 116 57 193 70 427 70 177 1 226 -2 280 -17 132 -36
215 -90 282 -181 l28 -39 -2 866 -3 867 251 0 251 0 6 -107 c4 -58 7 -444 7
-858 0 -413 3 -908 7 -1099 l6 -347 152 418 c84 230 401 1103 705 1941 424
1167 557 1522 569 1522 9 0 21 -4 28 -8z"/>
<path d="M2950 6983 c-136 -13 -225 -75 -257 -180 -21 -66 -20 149 -8 -2386 4
-863 11 -1565 15 -1560 4 4 173 465 375 1023 l369 1015 -3 884 c-1 487 -7 909
-11 938 -5 29 -17 70 -27 90 -26 56 -96 119 -158 142 -51 19 -196 43 -240 39
-11 0 -36 -3 -55 -5z"/>
<path d="M3432 4685 c-8 -16 -176 -475 -374 -1020 l-360 -990 1 -240 c1 -132
6 -265 12 -296 11 -57 56 -150 75 -156 7 -2 143 359 338 895 l326 899 -2 469
c-3 401 -5 465 -16 439z"/>
<path d="M3148 2773 c-164 -450 -298 -824 -298 -830 0 -5 21 -17 48 -24 55
-16 267 -18 282 -3 6 6 71 178 145 382 l135 371 -1 288 c-1 158 -4 366 -8 462
l-6 173 -297 -819z"/>
<path d="M3358 2215 c-54 -148 -96 -271 -93 -273 8 -9 93 48 121 80 56 67 68
111 72 263 6 228 8 229 -100 -70z"/>
</g>
</svg>
