<?xml version="1.0" standalone="no"?>
<!DOCTYPE svg PUBLIC "-//W3C//DTD SVG 20010904//EN"
 "http://www.w3.org/TR/2001/REC-SVG-20010904/DTD/svg10.dtd">
<svg version="1.0" xmlns="http://www.w3.org/2000/svg"
 width="1054.000000pt" height="1054.000000pt" viewBox="0 0 1054.000000 1054.000000"
 preserveAspectRatio="xMidYMid meet">
<metadata>
Created by potrace 1.11, written by Peter Selinger 2001-2013
</metadata>
<g transform="translate(0.000000,1054.000000) scale(0.100000,-0.100000)"
fill="#000000" stroke="none">
<path d="M5436 10267 c-9 -23 -34 -91 -56 -151 -22 -60 -40 -113 -40 -117 0
-5 -8 -28 -19 -52 -10 -23 -46 -121 -81 -217 -34 -96 -66 -184 -70 -195 -9
-21 -383 -1049 -454 -1250 -24 -66 -145 -401 -270 -745 -125 -344 -266 -731
-313 -860 -47 -129 -89 -239 -93 -243 -4 -4 -8 257 -9 580 -4 987 -10 1804
-15 1812 -3 4 -116 6 -253 5 l-248 -1 1 -869 c1 -803 0 -867 -15 -844 -100
153 -293 229 -570 224 -420 -7 -622 -132 -676 -419 -6 -32 -6 -823 0 -1725 2
-294 6 -1061 10 -1705 4 -643 8 -1183 9 -1200 14 -143 42 -236 95 -316 l37
-55 -63 -175 c-35 -95 -72 -196 -82 -224 -34 -86 -36 -101 -10 -108 12 -3 25
-4 28 -2 3 1 44 109 91 238 l85 235 26 -18 c45 -33 161 -71 246 -83 12 -2 25
-6 29 -10 4 -4 -7 -44 -24 -89 -94 -255 -192 -532 -192 -543 0 -20 48 -25 55
-6 9 21 98 265 170 466 32 88 59 162 61 164 2 2 56 3 121 2 65 0 144 3 176 7
31 5 57 8 57 7 0 -1 -30 -82 -66 -181 -36 -98 -69 -190 -74 -204 -4 -14 -45
-126 -90 -250 -45 -124 -88 -241 -95 -261 -13 -34 -12 -36 15 -46 l28 -11 113
312 c62 171 123 340 136 376 13 36 40 110 60 165 19 55 40 105 47 111 6 5 38
21 71 34 104 41 186 107 243 197 15 23 30 43 33 43 3 0 14 -33 24 -74 l19 -74
-33 -89 c-18 -48 -50 -137 -72 -198 -21 -60 -117 -324 -213 -585 -153 -420
-172 -476 -158 -488 9 -6 21 -12 27 -12 7 0 49 102 95 227 45 126 102 280 125
343 24 63 89 243 145 400 57 157 104 286 105 288 4 5 289 9 301 5 6 -2 -98
-302 -261 -751 -241 -661 -271 -748 -257 -759 9 -7 22 -13 29 -13 8 0 15 6 18
13 10 33 147 415 154 432 5 11 94 254 197 540 103 286 193 527 201 536 7 8 13
25 13 36 0 29 10 54 20 48 10 -6 50 90 120 285 28 80 71 197 95 260 23 63 65
178 93 255 78 214 119 326 156 428 77 208 311 849 346 947 21 58 70 193 110
300 39 107 109 301 156 430 47 129 89 244 94 255 5 11 44 119 88 240 44 121
92 254 107 295 15 41 42 116 60 165 168 466 282 771 308 824 63 128 184 215
282 204 143 -16 286 -225 301 -443 3 -41 7 -1047 7 -2235 2 -1995 3 -2160 18
-2163 10 -2 26 10 38 27 17 23 158 396 201 531 4 14 126 354 270 755 356 992
351 977 360 1005 5 14 28 81 53 150 180 502 452 1262 464 1295 337 952 328
927 390 996 53 59 105 83 178 82 78 -2 126 -23 184 -81 51 -51 83 -110 115
-212 20 -65 20 -81 23 -2309 2 -1549 7 -2248 14 -2257 7 -8 18 -10 32 -5 l22
8 0 3298 c0 2700 -2 3298 -13 3302 -21 8 -2 55 -174 -427 -44 -124 -135 -380
-203 -570 -68 -190 -293 -820 -500 -1400 -207 -580 -398 -1116 -425 -1190 -27
-74 -123 -343 -214 -598 -91 -254 -177 -486 -193 -515 -40 -74 -128 -160 -183
-179 -177 -59 -344 113 -376 387 -4 33 -7 1029 -7 2213 0 1185 -3 2170 -8
2191 -7 33 5 74 117 381 68 188 123 344 122 346 -2 1 -15 5 -29 9 -26 6 -27 4
-72 -122 -85 -239 -248 -688 -257 -708 -8 -18 -114 -310 -162 -445 -60 -168
-554 -1528 -579 -1595 -17 -44 -32 -84 -33 -90 -2 -5 -6 -17 -9 -25 -3 -8 -23
-64 -45 -125 -22 -60 -79 -218 -127 -350 -48 -132 -96 -263 -106 -290 -10 -28
-90 -251 -179 -495 -89 -245 -188 -517 -220 -605 -64 -176 -181 -499 -213
-585 -11 -30 -37 -102 -57 -160 -21 -58 -54 -148 -73 -200 -19 -52 -92 -252
-161 -445 -310 -851 -323 -887 -327 -864 -2 13 -4 204 -3 424 l0 400 68 180
c37 99 74 200 83 225 8 25 43 122 78 215 80 219 197 541 245 675 20 58 53 148
72 200 20 52 40 109 46 125 6 17 24 66 40 110 54 147 124 339 168 465 24 69
48 134 53 145 5 11 14 34 19 50 6 17 101 280 212 585 111 305 210 578 219 605
10 28 46 124 79 215 33 91 119 329 192 530 72 201 135 374 140 385 13 32 229
624 282 775 11 30 85 235 165 455 186 510 214 588 210 591 -5 6 -57 16 -57 11
0 -8 -57 -166 -323 -897 -135 -371 -284 -783 -331 -915 -48 -132 -93 -256
-100 -275 -16 -39 -31 -80 -106 -290 -29 -80 -70 -192 -92 -250 -22 -58 -41
-109 -42 -115 -2 -5 -6 -17 -9 -25 -3 -8 -99 -271 -212 -585 -113 -313 -212
-586 -219 -605 -8 -19 -28 -73 -45 -120 -16 -47 -53 -148 -81 -225 -28 -77
-57 -158 -65 -180 -20 -58 -113 -314 -129 -355 -18 -46 -40 -108 -191 -525
-295 -816 -337 -931 -349 -960 -8 -16 -16 -37 -19 -45 -3 -8 -5 26 -5 75 0 50
-1 263 -1 473 l-2 384 136 376 c75 208 154 424 175 482 98 267 170 465 505
1390 80 223 161 446 180 495 19 50 64 173 101 275 36 102 78 214 91 250 13 36
28 76 32 90 5 14 66 183 136 375 70 193 136 375 147 405 53 147 390 1077 395
1090 3 8 7 17 7 20 2 8 116 321 143 390 23 61 24 65 7 77 -10 7 -23 13 -28 13
-6 0 -49 -105 -95 -233 -46 -127 -105 -290 -131 -362 -27 -71 -107 -294 -180
-495 -72 -201 -147 -405 -165 -455 -18 -49 -74 -205 -125 -345 -51 -140 -108
-297 -127 -349 -29 -81 -154 -423 -285 -786 -100 -275 -119 -328 -163 -445
-25 -69 -47 -129 -49 -135 -2 -5 -6 -17 -9 -25 -3 -8 -38 -105 -77 -215 -40
-110 -94 -258 -120 -330 -27 -71 -89 -245 -140 -385 -51 -140 -105 -289 -120
-330 -15 -41 -74 -203 -130 -360 -57 -157 -106 -288 -109 -292 -3 -4 -6 208
-6 470 l0 477 27 70 c29 77 129 351 413 1135 103 283 202 556 220 605 18 50
80 221 138 380 58 160 189 522 292 805 103 283 202 556 220 605 68 191 377
1042 390 1075 70 180 72 194 31 202 -19 3 -35 -36 -161 -387 -80 -222 -245
-679 -279 -770 -35 -94 -576 -1582 -768 -2115 -60 -168 -114 -314 -118 -325
-8 -19 -130 -351 -204 -560 -126 -351 -201 -553 -203 -551 -2 1 -4 214 -6 472
-2 421 0 474 15 509 15 36 295 805 338 930 26 74 417 1152 440 1210 10 28 75
205 144 395 68 190 215 594 325 898 111 304 201 556 201 561 0 4 -11 13 -24
19 -23 10 -26 8 -40 -31z m-2193 -3176 c150 -28 238 -105 267 -234 6 -28 12
-393 15 -941 l5 -896 -66 -182 c-36 -101 -69 -192 -74 -203 -5 -11 -143 -390
-306 -842 -164 -452 -300 -821 -302 -819 -4 4 -14 1986 -16 3101 -1 650 2 809
13 847 15 53 68 121 113 144 71 37 231 48 351 25z m290 -2726 l3 -459 -37
-106 c-21 -58 -52 -143 -69 -190 -17 -47 -33 -89 -34 -95 -2 -5 -6 -17 -9 -25
-4 -8 -22 -58 -40 -110 -19 -52 -100 -275 -180 -495 -80 -220 -175 -483 -212
-585 -37 -102 -69 -189 -72 -193 -14 -24 -65 61 -84 140 -6 26 -13 157 -15
293 l-4 244 31 86 c17 47 34 94 39 105 5 11 158 433 341 937 183 505 334 917
336 915 1 -2 4 -210 6 -462z m5 -792 c0 -82 1 -293 2 -470 l2 -322 -132 -364
c-72 -200 -135 -369 -140 -377 -7 -11 -38 -14 -132 -13 -142 0 -205 15 -200
48 4 17 190 536 212 590 5 11 41 110 81 220 39 110 93 259 119 330 26 72 78
214 115 318 38 103 69 187 70 187 2 0 3 -66 3 -147z m6 -1135 c-2 -169 -17
-233 -72 -294 -32 -36 -110 -89 -118 -81 -6 5 22 89 111 332 21 55 44 121 53
148 9 26 18 47 21 47 3 0 5 -69 5 -152z"/>
</g>
</svg>
