<?xml version="1.0" encoding="utf-8"?>
<!-- Generator: Adobe Illustrator 22.0.0, SVG Export Plug-In . SVG Version: 6.00 Build 0)  -->
<svg version="1.1" id="Layer_1" xmlns="http://www.w3.org/2000/svg" xmlns:xlink="http://www.w3.org/1999/xlink" x="0px" y="0px"
	 viewBox="0 0 1755 1201" style="enable-background:new 0 0 1755 1201;" xml:space="preserve">
<style type="text/css">
	.st0{fill:#08F4D2;}
	.st1{fill:#F4F4F4;}
	.st2{fill:none;}
	.st3{fill:#444444;}
</style>
<title>Hero_2321</title>
<g id="Fill-1">
	<polygon class="st0" points="977,414 473.5,525.6 303,1014 808.8,883.1 	"/>
</g>
<g id="Group-8">
	<g id="Group-4">
		
			<image style="overflow:visible;enable-background:new    ;" width="2500" height="2456" id="Image-2" xlink:href="7BDE51BDD5E11BA4.png"  transform="matrix(8.992671e-02 0 0 8.992671e-02 38.0016 727.55)">
		</image>
		
			<image style="overflow:visible;enable-background:new    ;" width="4663" height="5912" id="Image-3" xlink:href="7BDE51BDD5E11BAB.png"  transform="matrix(8.994210e-02 0 0 8.994210e-02 100.99 404.1161)">
		</image>
	</g>
	
		<image style="overflow:visible;enable-background:new    ;" width="4605" height="2324" id="Image-1" xlink:href="7BDE51BDD5E11BAC.png"  transform="matrix(8.996091e-02 0 0 8.996091e-02 112 388.2604)">
	</image>
	
		<image style="overflow:visible;enable-background:new    ;" width="1771" height="1330" id="Image-5" xlink:href="7BDE51BDD5E11BAD.png"  transform="matrix(8.993234e-02 0 0 8.993234e-02 122.0149 648.31)">
	</image>
	<g id="Group-11">
		<path id="Fill-1-2" class="st0" d="M4.9,904L329.8,18L4.9,904z"/>
		<polygon id="Fill-2" class="st0" points="4,904.4 5.4,904.9 330.7,18.5 329.3,18 		"/>
		<path id="Fill-3" class="st0" d="M364.3,49.7l-337,900.9"/>
		<polygon id="Fill-4" class="st0" points="27.8,950.6 26.3,950.1 362.9,48.8 364.3,49.3 		"/>
		<path id="Fill-5" class="st0" d="M397.8,81.4l-337,900.9"/>
		<polygon id="Fill-6" class="st0" points="61.3,982.3 59.8,981.8 396.4,80.5 397.8,81 		"/>
		<path id="Fill-7" class="st0" d="M431.3,112.2l-337,900.9"/>
		<polygon id="Fill-8" class="st0" points="94.8,1014 93.4,1013.5 429.9,112.2 431.3,112.7 		"/>
		<path id="Fill-9" class="st0" d="M124.1,1042l337-900.9L124.1,1042z"/>
		<polygon id="Fill-10" class="st0" points="124.1,1041.5 125.5,1042 462,140.7 462,140.7 460.6,140.2 		"/>
	</g>
	
		<image style="overflow:visible;enable-background:new    ;" width="2551" height="1513" id="Image-6" xlink:href="7BDE51BDD5E11BAA.png"  transform="matrix(8.994052e-02 0 0 8.994052e-02 123.0759 577.06)">
	</image>
	
		<image style="overflow:visible;enable-background:new    ;" width="137" height="179" id="Image-7" xlink:href="7BDE51BDD5E11BA9.png"  transform="matrix(0.6625 0 0 0.6625 120.1778 466.28)">
	</image>
</g>
<g id="Group-11-2">
	<path id="Fill-1-3" class="st0" d="M1751,1060.4L806.2,600.9L1751,1060.4z"/>
	<polygon id="Fill-2-2" class="st0" points="806,600 805.3,601.5 1750.3,1061.3 1751,1059.8 	"/>
	<path id="Fill-3-2" class="st0" d="M1712.1,1094L752.2,620.3"/>
	<polygon id="Fill-4-2" class="st0" points="751.4,620.9 752.1,619.4 1712.1,1093.4 1711.4,1094.9 	"/>
	<path id="Fill-5-2" class="st0" d="M1673.2,1127.6L713.4,653.9"/>
	<polygon id="Fill-6-2" class="st0" points="713.4,654.5 714.1,653 1674.1,1127 1673.4,1128.5 	"/>
	<path id="Fill-7-2" class="st0" d="M1635.2,1161.2L675.3,687.5"/>
	<polygon id="Fill-8-2" class="st0" points="674.5,688.1 675.2,686.6 1635.2,1160.6 1634.5,1162.1 	"/>
	<path id="Fill-9-2" class="st0" d="M1599.9,1192.1L640,718.4L1599.9,1192.1z"/>
	<polygon id="Fill-10-2" class="st0" points="640,719 1600,1193 1600.7,1191.5 640.7,717.5 	"/>
	
		<image style="overflow:visible;enable-background:new    ;" width="1647" height="3828" id="Image-1-2" xlink:href="7BDE51BDD5E11BB8.png"  transform="matrix(9.993928e-02 0 0 9.993928e-02 961.26 663.0162)">
	</image>
	
		<image style="overflow:visible;enable-background:new    ;" width="1650" height="1735" id="Image-2-2" xlink:href="7BDE51BDD5E11BB9.png"  transform="matrix(9.987879e-02 0 0 9.987879e-02 827.69 519.0051)">
	</image>
	
		<image style="overflow:visible;enable-background:new    ;" width="1918" height="2212" id="Image-3-2" xlink:href="7BDE51BDD5E11BBA.png"  transform="matrix(9.994786e-02 0 0 9.994786e-02 749.06 660.0077)">
	</image>
	
		<image style="overflow:visible;enable-background:new    ;" width="2205" height="2536" id="Image-4" xlink:href="E721D06FE988FE96.png"  transform="matrix(0.1 0 0 0.1 1086 706.64)">
	</image>
	
		<image style="overflow:visible;enable-background:new    ;" width="2579" height="1926" id="Image-5-2" xlink:href="E721D06FE988FE95.png"  transform="matrix(9.994808e-02 0 0 9.994808e-02 908.067 594.33)">
	</image>
	
		<image style="overflow:visible;enable-background:new    ;" width="1562" height="1402" id="Image-6-2" xlink:href="E721D06FE988FE92.png"  transform="matrix(9.993598e-02 0 0 9.993598e-02 1120.12 590.0449)">
	</image>
	
		<image style="overflow:visible;enable-background:new    ;" width="1667" height="1706" id="Image-7-2" xlink:href="E721D06FE988FE8D.png"  transform="matrix(9.994002e-02 0 0 9.994002e-02 1076 624.0712)">
	</image>
	<path id="Fill-8-3" class="st1" d="M1159,616c0,0-71.2,94.1-62.9,158l-18.1-3.7c1.1-101.5,70.9-153.6,70.9-153.6L1159,616z"/>
	
		<image style="overflow:visible;enable-background:new    ;" width="1442" height="3419" id="Image-10" xlink:href="E721D06FE988FE8F.png"  transform="matrix(9.986131e-02 0 0 9.986131e-02 838.07 630.1371)">
	</image>
</g>
<g>
	<path d="M494.8,722.5c-1.1,4.2-3.2,7-7.2,7c-5.7,0-8.3-3-8.3-13.8V618c0-8.7,2.5-12.3,8-12.3c3.4,0,5.7,1.7,6.8,5.9v-38.9h5.9
		v155.9h-4.4L494.8,722.5z M494.1,716.1v-97.7c0-4.2-1.3-7.4-4.9-7.4c-3,0-4,2.1-4,7.8v96.5c0,6.8,1.3,8.7,4,8.7
		C492.9,724,494.1,720.8,494.1,716.1z"/>
</g>
<g>
	<path d="M507.3,728.6V606.6h4.4l1.1,7.4c0.2-5.9,1.5-7.8,6.6-7.8h0.6v7.2h-1.7c-4.2,0-5.1,1.1-5.1,8.3v107H507.3z"/>
</g>
<g>
	<path d="M541.4,722.7c-1.1,4.9-3.6,6.8-7,6.8c-5.7,0-8.3-3.6-8.3-12.7V606.6h5.9v110.8c0,4.9,1.5,6.8,4.2,6.8c3,0,4.2-2.5,4.2-8.5
		V606.6h5.9v122.1H542L541.4,722.7z"/>
</g>
<g>
	<path d="M553,718.9v-46.3h5.9v45.9c0,3.4,1.3,5.3,4.2,5.3c3.2,0,4.2-1.7,4.2-5.3v-43.6c0-3.8-2.5-5.3-6.3-7.6
		c-5.5-3.4-7.8-5.5-7.8-11.2v-40.2c0-6.8,3.8-10.2,9.9-10.2c6.6,0,9.7,3.6,9.7,10.4v39.6H567v-39.1c0-3.6-0.8-5.1-3.8-5.1
		c-2.8,0-4,1.5-4,5.1v39.1c0,4,3.6,5.7,6.8,7.6c4.9,3,7.4,5.5,7.4,11.2v44.4c0,7.2-3.4,10.6-10.2,10.6S553,726.3,553,718.9z"/>
	<path d="M591.3,657.6l-6.1,40.8v30.3h-5.7V572.7h5.7v77.4l-2.5,47.4l5.1-38.3l7.2-52.7h5.5l-7,48.9l7.4,73.2h-5.7l-4.2-45.1
		L591.3,657.6z"/>
</g>
<g>
	<path d="M603.9,718.7v-102c0-7.6,4.2-11,10.4-11c6.3,0,10.4,3.4,10.4,11v102c0,7.6-4,10.8-10.4,10.8
		C607.9,729.5,603.9,726.5,603.9,718.7z M618.7,718.3V617.1c0-4-1.5-5.7-4.4-5.7c-3,0-4.4,1.7-4.4,5.7v101.1c0,3.6,1.7,5.5,4.4,5.5
		C617.2,723.8,618.7,721.9,618.7,718.3z"/>
	<path d="M637.5,728.6h-5.9V606.6h4.4l0.6,5.5c1.1-4.4,3.6-6.3,7-6.3c4,0,6.1,2.1,7,6.6c0.8-4.4,3.2-6.6,7-6.6
		c5.5,0,7.6,3.6,7.6,12.7v110.2h-5.9V618c0-5.1-1.1-6.8-3.8-6.8c-3.2,0-4,3.4-4,6.6v110.8h-5.9V617.8c0-4.9-1.1-6.6-3.8-6.6
		c-3.4,0-4.2,3.2-4.2,8.5V728.6z"/>
	<path d="M687.2,722.5c-1.1,4.9-4,7-7.6,7c-5.7,0-8-3-8-11.8v-41.5c0-4.9,0.4-6.6,2.3-8.9c1.5-1.7,3.8-2.5,6.3-3.8
		c5.3-2.5,6.1-3,6.1-8v-38.5c0-3.6-0.8-5.5-4-5.5c-3,0-4.2,1.7-4.2,5.5V655h-5.9v-38.9c0-6.6,3.6-10.4,10.2-10.4
		c6.6,0,9.9,3.6,9.9,10.4v112.5h-4.4L687.2,722.5z M686.4,716.8v-52.5c-0.4,1.7-1.5,2.5-3.8,3.6c-1.5,0.6-3,1.3-3.8,2.5
		c-0.8,1.3-1.3,2.8-1.3,5.9v41c0,4.7,1.3,6.6,4,6.6C684.5,724,686.4,721,686.4,716.8z"/>
	<path d="M705.2,728.6h-5.9V606.6h4.4l0.6,5.9c1.1-4.7,3.8-6.8,7.4-6.8c5.7,0,8.3,3.6,8.3,12.7v110.2h-5.9V618
		c0-5.1-1.5-6.8-4.2-6.8c-3,0-4.7,2.3-4.7,8.3V728.6z"/>
	<path d="M726.6,594.7c0-3.8,0.6-4.9,3.4-4.9c3,0,3.6,1.1,3.6,4.9c0,4-1.1,5.1-3.6,5.1C727.2,599.8,726.6,598.7,726.6,594.7z
		 M727,606.6c0.6,0.4,1.5,0.6,3,0.6c1.5,0,2.3-0.2,3-0.6v122.1H727V606.6z"/>
</g>
<g>
	<path d="M734.6,738.8h2.5c2.3,0,3-1.1,3-3.6V606.6c0.6,0.4,1.5,0.6,3,0.6c1.3,0,2.3-0.2,3-0.6V736c0,6.8-1.5,8.7-8,8.7h-3.4V738.8z
		 M739.7,594.7c0-3.8,0.6-4.9,3.4-4.9c3,0,3.4,1.1,3.4,4.9c0,4-0.8,5.1-3.4,5.1C740.3,599.8,739.7,598.7,739.7,594.7z"/>
</g>
<g>
	<path d="M768.7,722.5c-1.1,4.9-4,7-7.6,7c-5.7,0-8-3-8-11.8v-41.5c0-4.9,0.4-6.6,2.3-8.9c1.5-1.7,3.8-2.5,6.3-3.8
		c5.3-2.5,6.1-3,6.1-8v-38.5c0-3.6-0.8-5.5-4-5.5c-3,0-4.2,1.7-4.2,5.5V655h-5.9v-38.9c0-6.6,3.6-10.4,10.2-10.4
		c6.6,0,9.9,3.6,9.9,10.4v112.5h-4.4L768.7,722.5z M767.8,716.8v-52.5c-0.4,1.7-1.5,2.5-3.8,3.6c-1.5,0.6-3,1.3-3.8,2.5
		c-0.8,1.3-1.3,2.8-1.3,5.9v41c0,4.7,1.3,6.6,4,6.6C765.9,724,767.8,721,767.8,716.8z"/>
</g>
<g>
	<rect x="475.9" y="559.5" class="st2" width="330.1" height="192.2"/>
</g>
<g>
	<rect x="453.8" y="782.5" class="st3" width="335.1" height="1.6"/>
</g>
<g>
	<path d="M502.7,753.1V774h-2.2l-8.7-17v17h-2v-20.9h2.1l8.8,17.1v-17.1H502.7z"/>
	<path d="M519.4,753.1v1.9h-8.8v7.4h8v1.8h-8v7.9h9.4v1.9h-11.5v-20.9H519.4z"/>
	<path d="M525.3,753.1l3.6,17.6l3.8-17.6h1.9l3.8,17.6l3.6-17.6h2.2l-4.7,21h-2.3l-3.6-16.7l-3.6,16.7h-2.3l-4.7-21H525.3z"/>
	<path d="M557.5,753.1l5.5,17.7l5.4-17.7h2.8V774h-2v-17.1L564,774h-1.9l-5.3-17.1V774h-2v-20.9H557.5z"/>
	<path d="M578.9,753.1v13.3c0,4,1.5,6.1,4.5,6.1c3,0,4.5-2,4.5-6.1v-13.3h2.1v13.3c0,4.9-2.1,7.9-6.5,7.9c-4.5,0-6.5-2.9-6.5-7.9
		v-13.3H578.9z"/>
	<path d="M605.1,758.9v-0.5c0-2.3-1.5-3.9-4.1-3.9c-2.5,0-3.8,1.5-3.8,3.8c0,2.3,1,3.7,4.1,4c4.3,0.5,6.2,2.5,6.2,6
		c0,3.5-2.2,6-6.3,6c-4.3,0-6.7-2.4-6.7-6.1v-0.4h2.1v0.5c0,2.5,1.7,4.2,4.6,4.2c2.8,0,4.3-1.5,4.3-4.1c0-2.4-1.2-3.8-4.6-4.2
		c-4.1-0.4-5.7-2.6-5.7-5.9c0-3.3,2.2-5.7,5.9-5.7c3.8,0,6.1,2.3,6.1,5.8v0.4H605.1z"/>
	<path d="M614.5,753.1V774h-2.1v-20.9H614.5z"/>
	<path d="M630.4,760.3v-0.6c0-3.1-1.4-5.1-4.3-5.1c-3,0-4.7,2.5-4.7,6.9v4.1c0,4.6,1.6,6.9,4.6,6.9c2.8,0,4.5-2,4.5-5.2v-0.6h2v0.6
		c0,4.2-2.4,7-6.4,7c-4.5,0-6.8-2.8-6.8-9v-3.5c0-5.8,2.3-9.1,6.8-9.1c4.2,0,6.4,2.8,6.4,6.9v0.6H630.4z"/>
	<path d="M654.6,753.1v1.9h-8.8v7.7h7.7v1.8h-7.7v9.5h-2.1v-20.9H654.6z"/>
	<path d="M670.2,753.1v1.9h-8.8v7.4h8v1.8h-8v7.9h9.4v1.9h-11.5v-20.9H670.2z"/>
	<path d="M685.2,758.9v-0.5c0-2.3-1.5-3.9-4.1-3.9c-2.5,0-3.8,1.5-3.8,3.8c0,2.3,1,3.7,4.1,4c4.3,0.5,6.2,2.5,6.2,6
		c0,3.5-2.2,6-6.3,6c-4.3,0-6.7-2.4-6.7-6.1v-0.4h2.1v0.5c0,2.5,1.7,4.2,4.6,4.2c2.8,0,4.3-1.5,4.3-4.1c0-2.4-1.2-3.8-4.6-4.2
		c-4.1-0.4-5.7-2.6-5.7-5.9c0-3.3,2.2-5.7,5.9-5.7c3.8,0,6.1,2.3,6.1,5.8v0.4H685.2z"/>
	<path d="M703.7,753.1v1.9h-5.3v19h-2.1v-19h-5.4v-1.9H703.7z"/>
	<path d="M710,753.1V774H708v-20.9H710z"/>
	<path d="M716.3,753.1l5,17.9l5-17.9h2.3l-6.2,21h-2.1l-6.2-21H716.3z"/>
	<path d="M739.7,753l6.5,21h-2.2l-1.6-5.5h-7.6l-1.6,5.5h-2.2l6.5-21H739.7z M735.3,766.6h6.5l-3.3-11.1L735.3,766.6z"/>
	<path d="M752.4,753.1v19h9.1v1.9h-11.1v-20.9H752.4z"/>
</g>
<path d="M472.4,813.5v-1.9c0-2.2,0.3-6,8.8-7.9c1-0.2,2.3-0.5,3.2-0.6c2.1-0.4,2.3-0.7,2.3-1.2c0-0.6-0.5-1.1-3.6-1.1
	c-3.8,0-4,1.5-4,2.2h-6.4v-0.2c0-2.1,0.8-6,9.8-6h1c8.3,0,9.9,2.4,9.9,5.1v0.1c0,2.7-1.6,4-7.5,5l-3.5,0.6c-3.8,0.6-4.4,1.4-4.4,1.9
	h9.9v-2h5.8v6.1H472.4z"/>
<path d="M520.7,805.6c0,3-1.4,8.2-11.6,8.2h-1c-10.2,0-11.6-5.3-11.6-8.2v-0.7c0-3,1.4-8.2,11.6-8.2h1c10.2,0,11.6,5.2,11.6,8.2
	V805.6z M514.1,805.1c0-1.7-1.1-3.9-5.5-3.9c-4.5,0-5.6,2.2-5.6,3.9v0.3c0,1.7,1.1,4,5.6,4c4.4,0,5.5-2.3,5.5-4V805.1z"/>
<path d="M523.3,803.8v-3.4c2.9-0.2,4.5-1.4,5.2-3.3h5v16.5h-6.3v-9.8H523.3z"/>
<path d="M547.5,813.9c-8,0-10-3.1-10-5.2v-0.1h6.4c0.1,0.3,0.6,1.3,3.9,1.3c4.2,0,4.8-2.4,4.8-3.6v-0.1c-0.4,0.3-2,1.6-6.6,1.6h-0.3
	c-6.9,0-8.9-2.4-8.9-5.2v-0.2c0-2.6,1.3-5.6,10.3-5.6h1c9.2,0,10.9,4.4,10.9,8.2v0.5c0,3.5-1.5,8.4-10.5,8.4H547.5z M552.1,802.4
	c0-0.8-0.7-1.7-4.4-1.7c-3.7,0-4.3,0.9-4.3,1.7v0c0,0.8,0.6,1.7,4.3,1.7C551.4,804.1,552.1,803.2,552.1,802.4L552.1,802.4z"/>
<path d="M579.2,813.5v-11.9h6v2.1c0.5-0.5,2.3-2.4,5.9-2.4h0.1c2.8,0,4.2,1.2,4.9,2.5c1-0.9,2.9-2.5,6.3-2.5h0.2
	c4.3,0,5.5,2.7,5.5,4.5v7.7h-6v-5.7c0-1.5-0.6-2.7-2.5-2.7c-1.9,0-2.9,1.3-2.9,2.9v5.6h-6.1v-5.7c0-1.5-0.6-2.7-2.5-2.7
	c-1.9,0-2.9,1.3-2.9,2.9v5.6H579.2z"/>
<path d="M616.7,813.7h-0.2c-4,0-5.5-1.9-5.5-3.8v-0.3c0-2,1.3-3.2,4.8-3.5l5.7-0.5c0.5-0.1,0.7-0.2,0.7-0.6c0-0.4-0.2-0.9-2.6-0.9
	h-0.1c-2.5,0-2.6,0.8-2.7,1.2h-5.6v-0.1c0-1.6,0.5-4,7.6-4h1.2c7.4,0,8,2.2,8,3.8v4.4c0,0.3,0.1,0.5,0.5,0.5h0.6v3.5h-5
	c-1,0-1.8-0.6-1.9-1.6C621.7,812.5,620.2,813.7,616.7,813.7z M622.2,807.9l-4,0.7c-1,0.2-1.5,0.4-1.5,1v0c0,0.6,0.4,1.2,1.9,1.2
	c2.2,0,3.6-1.2,3.6-2.5V807.9z"/>
<path d="M633.8,814h2.7c0.4,0,0.6-0.2,0.6-0.4v0c0-0.2-0.2-0.6-0.5-1.2l-5.6-10.8h6.4l3.3,7.7l3.1-7.7h6L644,814
	c-1.2,2.5-2.4,3.7-4.6,3.7h-5.6V814z"/>
<path d="M660.1,803.8v-3.4c2.9-0.2,4.5-1.4,5.2-3.3h5v16.5h-6.3v-9.8H660.1z"/>
<path d="M697.9,805.6c0,3-1.4,8.2-11.6,8.2h-1c-10.2,0-11.6-5.3-11.6-8.2v-0.7c0-3,1.4-8.2,11.6-8.2h1c10.2,0,11.6,5.2,11.6,8.2
	V805.6z M691.4,805.1c0-1.7-1.1-3.9-5.5-3.9c-4.5,0-5.6,2.2-5.6,3.9v0.3c0,1.7,1.1,4,5.6,4c4.4,0,5.5-2.3,5.5-4V805.1z"/>
<path d="M716.7,804.9v4.1h-7.3v-4.1H716.7z"/>
<path d="M728.1,803.8v-3.4c2.9-0.2,4.5-1.4,5.2-3.3h5v16.5h-6.3v-9.8H728.1z"/>
<path d="M752.3,813.9c-8,0-10-3.1-10-5.2v-0.1h6.4c0.1,0.3,0.6,1.3,3.9,1.3c4.2,0,4.8-2.4,4.8-3.6v-0.1c-0.4,0.3-2,1.6-6.6,1.6h-0.3
	c-6.9,0-8.9-2.4-8.9-5.2v-0.2c0-2.6,1.3-5.6,10.3-5.6h1c9.2,0,10.9,4.4,10.9,8.2v0.5c0,3.5-1.5,8.4-10.5,8.4H752.3z M756.8,802.4
	c0-0.8-0.7-1.7-4.4-1.7c-3.7,0-4.3,0.9-4.3,1.7v0c0,0.8,0.6,1.7,4.3,1.7S756.8,803.2,756.8,802.4L756.8,802.4z"/>
<g>
	<path d="M474.5,828.4l4,14.2l4-14.2h1.8l-5,16.7h-1.7l-4.9-16.7H474.5z"/>
	<path d="M490.6,828.4V845H489v-16.6H490.6z"/>
	<path d="M498.4,828.4v15.1h7.2v1.5h-8.8v-16.6H498.4z"/>
	<path d="M520.9,828.4V845h-1.7l-7-13.5V845h-1.6v-16.6h1.7l7,13.6v-13.6H520.9z"/>
	<path d="M528.7,828.4V845h-1.6v-16.6H528.7z"/>
	<path d="M536.3,828.4V839c0,3.2,1.2,4.8,3.5,4.8c2.3,0,3.6-1.6,3.6-4.8v-10.6h1.6V839c0,3.9-1.7,6.3-5.2,6.3s-5.2-2.3-5.2-6.3
		v-10.6H536.3z"/>
	<path d="M558.6,833v-0.4c0-1.9-1.2-3.1-3.2-3.1c-1.9,0-3,1.2-3,3c0,1.8,0.8,2.9,3.3,3.2c3.4,0.4,5,2,5,4.8c0,2.8-1.7,4.7-5,4.7
		c-3.4,0-5.3-1.9-5.3-4.9v-0.4h1.6v0.4c0,2,1.3,3.3,3.7,3.3c2.2,0,3.4-1.2,3.4-3.2c0-1.9-0.9-3-3.7-3.3c-3.3-0.4-4.6-2.1-4.6-4.7
		s1.7-4.5,4.7-4.5c3.1,0,4.8,1.8,4.8,4.6v0.3H558.6z"/>
	<path d="M577.4,827.7l-6.8,23.3H569l6.8-23.3H577.4z"/>
	<path d="M584.7,827.7l-6.8,23.3h-1.6l6.8-23.3H584.7z"/>
	<path d="M591.9,827.7l-6.8,23.3h-1.6l6.8-23.3H591.9z"/>
	<path d="M599.1,827.7l-6.8,23.3h-1.6l6.8-23.3H599.1z"/>
	<path d="M606.4,827.7l-6.8,23.3H598l6.8-23.3H606.4z"/>
	<path d="M620.3,828.4c3.8,0,6.1,2.1,6.1,6.7v3.1c0,4.6-2.3,6.7-6.1,6.7h-4v-16.6H620.3z M620.2,843.5c2.8,0,4.5-1.6,4.5-5.1V835
		c0-3.6-1.7-5.1-4.5-5.1h-2.3v13.6H620.2z"/>
	<path d="M640.1,845l-3.2-6.3c-0.3,0-0.7,0.1-1.1,0.1h-2.4v6.2h-1.6v-16.6h4.1c3.6,0,5.6,1.9,5.6,5.2c0,2.3-1.1,4-3,4.7l3.5,6.7
		H640.1z M633.4,837.3h2.4c2.5,0,4.1-1.3,4.1-3.7c0-2.3-1.5-3.7-4.1-3.7h-2.4V837.3z"/>
	<path d="M648.3,828.4V839c0,3.2,1.2,4.8,3.5,4.8c2.3,0,3.6-1.6,3.6-4.8v-10.6h1.6V839c0,3.9-1.7,6.3-5.2,6.3
		c-3.5,0-5.2-2.3-5.2-6.3v-10.6H648.3z"/>
	<path d="M670.6,833v-0.4c0-1.9-1.2-3.1-3.2-3.1c-1.9,0-3,1.2-3,3c0,1.8,0.8,2.9,3.3,3.2c3.4,0.4,5,2,5,4.8c0,2.8-1.7,4.7-5,4.7
		c-3.4,0-5.3-1.9-5.3-4.9v-0.4h1.6v0.4c0,2,1.3,3.3,3.7,3.3c2.2,0,3.4-1.2,3.4-3.2c0-1.9-0.9-3-3.7-3.3c-3.3-0.4-4.6-2.1-4.6-4.7
		s1.7-4.5,4.7-4.5c3.1,0,4.8,1.8,4.8,4.6v0.3H670.6z"/>
	<path d="M686.8,845l-4.7-8.2l-2.5,3.4v4.8H678v-16.6h1.6v9.4l6.6-9.4h1.9l-4.9,7.1l5.6,9.5H686.8z"/>
	<path d="M695.2,828.4V845h-1.6v-16.6H695.2z"/>
	<path d="M711.7,828.4V845h-1.7l-7-13.5V845h-1.6v-16.6h1.7l7,13.6v-13.6H711.7z"/>
	<path d="M719.4,828.4V845h-1.6v-16.6H719.4z"/>
	<path d="M735.9,828.4V845h-1.7l-7-13.5V845h-1.6v-16.6h1.7l7,13.6v-13.6H735.9z"/>
	<path d="M750.8,845l-4.7-8.2l-2.5,3.4v4.8H742v-16.6h1.6v9.4l6.6-9.4h1.9l-4.9,7.1l5.6,9.5H750.8z"/>
	<path d="M762.6,828.3l5.2,16.7h-1.8l-1.3-4.4h-6l-1.3,4.4h-1.7l5.2-16.7H762.6z M759,839.2h5.2l-2.6-8.9L759,839.2z"/>
</g>
</svg>
