<svg xmlns="http://www.w3.org/2000/svg" viewBox="0 0 341 500"><defs><style>.cls-1{fill:#fff;}</style></defs><title>Logo-white</title><g id="Layer_2" data-name="Layer 2"><path class="cls-1" d="M328.14,90.62a1.05,1.05,0,0,0-1.19.68L262.67,271.07q-8.19,23-16.42,46c-3.05,8.51-8.31,13.77-14.07,14.07-4.9.24-9.43-3.24-12.47-9.59-2.65-5.52-3-11.94-3-16.92,0-61.07,0-123.14,0-183.28V101c0-1.22-.05-2.45-.11-3.84l-.08-2a1,1,0,0,0-.66-.88l12-33.08.49-1.33-3.31-1.21-125,344.13-.22-39.65L214.19,48.37l.48-1.33-3.3-1.2L99.82,353l-.24-44.8,99.47-273.9.49-1.33-3.3-1.21L99.52,298l-.25-44.81L183.92,20.15l.48-1.34-3.3-1.2L99.21,243.07,99,198.27,168.78,6l.49-1.34L166,3.5,98.91,188.12,98.29,76.18l-25,.14.48,86c-4.52-9.32-14.35-13-28.63-12.92-23.2.13-33.87,8.13-33.76,27.29l1.2,215.88c.05,8.95,1.59,15.45,4.79,20.08L8,438.48l-.48,1.33,3.3,1.2L20,415.63c3.47,3.24,8.19,5.19,14.27,6.2L23.12,452.59l-.49,1.33,3.31,1.2,11.92-32.83a93.71,93.71,0,0,0,9.7.43,59.93,59.93,0,0,0,6.82-.43L38.25,466.7,37.77,468l3.3,1.21,17.29-47.59c10.13-2.15,16.09-7.39,19.45-14.52l1,3.69-25.42,70-.49,1.34,3.31,1.2L80.4,416.74l1.06,3.92,12.16-.07-26.52,73-.48,1.33,3.3,1.21,27.45-75.57,2.83,0,0-5,.48-1.19c.44-1.07.9-2.17,1.31-3.3l14.93-40.86c21.46-58.74,43.64-119.43,65.4-179.18,3-8.1,7.31-12.67,13.32-14,2.38-.5,5.17.41,7.85,2.59,2.17,1.76,9.24,8.64,9.18,23.26-.19,49.66-.16,100.15-.13,149.17v5.56q0,25,0,50v6.25a1.06,1.06,0,0,0,.62,1,1,1,0,0,0,1.14-.17l.56-.48a8.94,8.94,0,0,0,2.59-4.11l55.43-154.88c7.72-21.54,15.7-43.8,23.49-65.76,2.74-7.71,6.57-11.77,11.73-12.41a12.14,12.14,0,0,1,9.74,3c4.79,4.23,7.53,12.44,7.54,22.52,0,49.87,0,100.57,0,149.6v62.54a1.07,1.07,0,0,0,1,1.07l1.49,0a1.12,1.12,0,0,0,.77-.31,1,1,0,0,0,.33-.76V91.66A1.05,1.05,0,0,0,328.14,90.62ZM36.39,178.39c-.07-12.62,4.36-17.31,16.86-17.38,15.17-.09,20.56,6.89,20.61,16.24l.44,78.65L37.38,357.54Zm1.18,213.07-.14-23.77L74.35,266l.25,44.8-34.16,94C38.55,401.93,37.6,397.62,37.57,391.46Zm17.06,19.07c-4.94,0-8.74-.73-11.5-2.75L74.66,321l.24,44.81-16.16,44.5A40.26,40.26,0,0,1,54.63,410.53Zm8.1-.91L75,375.93l.1,17.19C75.1,401.3,71.73,407.41,62.73,409.62Z"/></g></svg>